<?xml version="1.0" encoding="utf-8"?>
<!-- Generator: Adobe Illustrator 19.1.0, SVG Export Plug-In . SVG Version: 6.00 Build 0)  -->
<svg version="1.1" id="Shape" xmlns="http://www.w3.org/2000/svg" xmlns:xlink="http://www.w3.org/1999/xlink" x="0px" y="0px"
	 viewBox="0 0 131.7 24" style="enable-background:new 0 0 131.7 24;" xml:space="preserve">
<style type="text/css">
	.st0{fill:#063130;}
	.st1{fill:#17811E;}
	.st2{fill:#FFFFFF;}
</style>
<polygon class="st0" points="122.7,24 71.7,24 80.7,12 71.7,0 122.7,0 131.7,12 "/>
<path class="st1" d="M3.1,4.7H0V2.4h9.1v2.3H6v16.9H3.1V4.7z"/>
<path class="st1" d="M11,2.4h3.2c2.2,0,5.8,0.3,5.8,5.5v0.5c0,2.9-0.9,4.7-2.5,5.5l3.1,7.7h-3.1L15,14.4h-1.1v7.2H11V2.4z
	 M14.3,12.3c2,0,2.8-0.8,2.8-3.4V7.4c0-2-0.6-2.9-2.8-2.9h-0.4v7.8H14.3z"/>
<path class="st1" d="M24.9,2.4h3.3l3.5,19.2h-2.9l-0.5-3.4h-3.5l-0.5,3.4h-3L24.9,2.4z M28,16l-1.3-9.6h-0.1L25.2,16H28z"/>
<path class="st1" d="M33.7,2.4h2.9v19.2h-2.9V2.4z"/>
<path class="st1" d="M39.9,2.4h2.4l4.6,12.8h0.1c-0.1-1.2-0.3-2.9-0.3-5.8v-7h2.6v19.2h-2.4L42.2,9.1h-0.1c0.1,1.4,0.3,3,0.3,6.9
	v5.6h-2.6V2.4z"/>
<path class="st1" d="M52.5,2.4h7.1v2.3h-4.2v5.7h3.2v2.3h-3.2v6.6h4.3v2.3h-7.2V2.4z"/>
<path class="st1" d="M61.8,2.4H65c2.2,0,5.8,0.3,5.8,5.5v0.5c0,2.9-0.9,4.7-2.5,5.5l3.1,7.7h-3.1l-2.5-7.2h-1.1v7.2h-2.9V2.4z
	 M65.1,12.3c2,0,2.8-0.8,2.8-3.4V7.4c0-2-0.6-2.9-2.8-2.9h-0.4v7.8H65.1z"/>
<path class="st2" d="M83.6,2.3h2.9v16.9h4v2.3h-6.9V2.3z"/>
<path class="st2" d="M92.3,2.3h2.9v19.2h-2.9V2.3z"/>
<path class="st2" d="M98.5,2.3h2.4l4.7,12.8h0.1c-0.1-1.2-0.3-2.9-0.3-5.8v-7h2.6v19.2h-2.4L100.8,9h-0.1c0.1,1.4,0.3,3,0.3,6.9v5.6
	h-2.6V2.3z"/>
<path class="st2" d="M111.1,2.3h2.9v8.4h0.1l3.3-8.4h2.9l-3.7,9l4.1,10.2h-3.1l-3.5-9.1H114v9.1h-2.9V2.3z"/>
</svg>
